<?xml version="1.0" standalone="no"?>
<!DOCTYPE svg PUBLIC "-//W3C//DTD SVG 20010904//EN"
 "http://www.w3.org/TR/2001/REC-SVG-20010904/DTD/svg10.dtd">
<svg version="1.0" xmlns="http://www.w3.org/2000/svg"
 width="500.000000pt" height="500.000000pt" viewBox="0 0 500.000000 500.000000"
 preserveAspectRatio="xMidYMid meet">
<metadata>
Created by potrace 1.14, written by Peter Selinger 2001-2017
</metadata>
<g transform="translate(0.000000,500.000000) scale(0.100000,-0.100000)"
fill="#000000" stroke="none">
<path d="M2014 4491 c-196 -48 -380 -158 -509 -304 -43 -49 -115 -175 -115
-202 0 -6 -29 -37 -65 -69 -150 -132 -238 -293 -305 -556 -59 -235 -69 -513
-26 -752 l24 -138 -58 -59 c-37 -38 -72 -88 -97 -137 -35 -72 -38 -86 -41
-177 -4 -90 -1 -107 23 -169 74 -187 222 -294 423 -306 l93 -5 55 -107 c30
-59 81 -143 113 -187 93 -124 253 -268 359 -322 23 -12 42 -23 42 -26 0 -3
-18 -14 -40 -25 -57 -29 -116 -85 -147 -139 -15 -25 -50 -80 -77 -121 -77
-114 -113 -176 -156 -267 -44 -92 -48 -117 -24 -152 14 -20 15 -29 4 -65 -7
-22 -23 -78 -36 -123 l-23 -83 48 0 48 0 23 78 c40 135 20 126 162 75 68 -25
124 -46 126 -48 2 -2 -3 -26 -12 -54 l-15 -51 83 0 c75 0 84 2 89 20 5 20 14
20 527 20 513 0 522 0 527 -20 5 -17 14 -20 65 -20 l59 0 -7 60 c-6 57 -5 60
15 60 11 0 64 14 117 31 53 17 99 28 102 24 4 -4 16 -43 27 -88 l21 -82 47 -3
c31 -2 47 1 47 8 0 7 -12 58 -27 114 l-27 102 27 26 c18 18 27 38 27 58 0 76
-128 317 -250 470 -77 97 -106 125 -163 155 -20 11 -37 25 -37 32 0 6 39 37
87 68 103 68 269 231 334 330 25 39 65 111 90 161 l44 91 95 5 c155 9 266 65
351 176 67 89 92 157 97 267 3 73 0 102 -18 154 -25 74 -81 162 -137 212 l-39
36 0 209 c0 115 -6 254 -13 309 -37 295 -118 538 -228 682 -26 34 -26 35 -9
61 38 59 76 149 76 181 0 22 11 49 34 80 70 96 115 224 123 351 5 71 4 77 -22
108 -39 46 -88 45 -146 -4 -23 -19 -55 -42 -71 -50 -28 -14 -30 -14 -62 21
-20 21 -43 35 -57 35 -13 0 -89 -14 -169 -30 -193 -40 -363 -41 -561 -6 -73
14 -161 32 -194 40 -213 57 -519 74 -671 37z m791 -1112 c128 -16 303 -58 397
-96 67 -27 102 -48 152 -94 97 -89 114 -131 125 -309 5 -80 13 -156 19 -170 6
-14 38 -61 71 -105 48 -63 57 -81 43 -83 -9 -1 -84 2 -167 7 -82 4 -131 9
-107 10 58 2 56 26 -5 53 -33 14 -70 21 -118 22 -60 0 -83 -5 -160 -38 -59
-25 -116 -42 -165 -47 -41 -5 -95 -16 -120 -24 -139 -45 -402 -46 -532 0 -24
8 -79 18 -122 21 -60 5 -104 17 -175 47 -122 51 -207 56 -286 17 -66 -33 -68
-48 -8 -52 26 -2 -26 -7 -115 -11 -90 -5 -166 -7 -168 -4 -3 2 18 44 46 92 57
98 69 141 70 235 0 76 22 175 50 230 32 64 122 147 192 180 242 112 716 164
1083 119z m-715 -929 c67 0 127 -20 139 -46 15 -34 14 -135 -4 -218 -19 -90
-53 -142 -113 -169 -45 -21 -60 -22 -382 -22 -320 0 -337 1 -370 21 -45 26
-59 69 -67 195 -4 73 -2 113 12 167 l17 71 81 4 c45 2 210 2 367 0 157 -2 301
-3 320 -3z m1600 -77 l33 -78 -11 -108 c-13 -120 -29 -159 -76 -179 -46 -19
-665 -18 -721 1 -98 34 -145 133 -145 310 0 89 10 109 60 120 19 4 213 9 431
10 l396 2 33 -78z m-2608 -103 c17 -46 33 -71 54 -85 25 -17 34 -35 58 -120
16 -55 49 -155 72 -221 24 -67 44 -125 44 -129 0 -16 -129 8 -187 35 -74 34
-128 87 -174 172 -32 59 -34 69 -34 158 1 110 15 151 85 239 38 48 44 52 51
35 4 -10 18 -48 31 -84z m1559 77 c30 -20 39 -38 77 -146 49 -143 70 -176 141
-214 44 -25 67 -29 183 -37 166 -11 538 -2 596 16 33 9 42 10 39 1 -2 -7 -21
-59 -43 -117 -61 -168 -184 -403 -258 -496 -81 -100 -215 -218 -311 -273 -101
-58 -286 -137 -380 -162 -109 -29 -261 -29 -370 0 -94 25 -279 104 -380 162
-40 23 -111 75 -159 116 -131 114 -204 212 -297 398 -69 140 -165 373 -156
381 1 2 21 -3 42 -10 52 -17 415 -27 591 -16 216 13 265 49 329 241 29 85 46
122 71 147 l32 32 110 0 c97 0 113 -3 143 -23z m1417 -117 c24 -48 27 -66 27
-150 0 -89 -2 -99 -34 -158 -67 -123 -168 -193 -300 -207 -59 -7 -64 -6 -58
11 3 11 30 91 60 179 30 88 63 192 73 232 16 65 21 73 46 78 36 8 62 42 78
101 l14 47 33 -39 c18 -21 46 -64 61 -94z m-1883 -1365 c61 -23 140 -74 128
-84 -4 -4 -33 -28 -64 -54 l-56 -47 -77 115 c-42 63 -76 119 -76 125 0 6 21 0
48 -13 26 -13 70 -32 97 -42z m805 48 c0 -16 -96 -198 -125 -237 -13 -18 -17
-15 -70 40 -30 32 -55 59 -55 60 0 8 129 99 175 122 70 36 75 37 75 15z
m-1002 -108 l22 -35 -62 0 -62 0 34 35 c19 19 36 35 39 35 4 0 16 -16 29 -35z
m1150 -24 c2 -7 -16 -11 -47 -11 l-52 0 16 31 16 30 32 -20 c17 -11 33 -25 35
-30z m-561 -52 c-18 -41 -38 -85 -43 -98 -9 -21 -13 -16 -43 60 -18 46 -35 89
-38 96 -3 9 17 13 74 15 43 2 79 2 81 2 2 -1 -12 -35 -31 -75z m-479 -86 l14
-23 -171 0 -171 0 16 25 17 26 140 -3 c132 -3 140 -4 155 -25z m262 8 c15 -29
13 -31 -32 -31 l-41 0 23 25 c28 30 36 31 50 6z m360 -6 l23 -25 -46 0 c-51 0
-52 1 -37 31 14 26 32 24 60 -6z m512 8 c10 -9 18 -20 18 -25 0 -4 -68 -8
-150 -8 l-150 0 16 25 c16 24 20 25 132 25 93 0 119 -3 134 -17z m-782 -199
c19 -65 35 -84 71 -84 33 0 60 35 81 103 l11 37 362 0 361 0 18 -37 c11 -21
29 -62 42 -91 l24 -53 -62 -28 c-77 -34 -185 -64 -204 -57 -8 3 -14 14 -14 24
0 10 -5 23 -12 30 -15 15 -70 16 -84 2 -7 -7 -188 -9 -525 -8 l-514 3 3 43 c7
81 -35 130 -87 103 -29 -16 -37 -36 -50 -121 -7 -41 -14 -76 -17 -79 -13 -14
-244 79 -244 98 0 9 68 140 83 159 7 9 90 12 375 10 l366 -3 16 -51z m580
-289 l0 -25 -520 0 -520 0 0 25 0 25 520 0 520 0 0 -25z"/>
<path d="M1705 2385 c-135 -21 -162 -45 -109 -99 40 -39 78 -30 54 14 -10 19
-8 20 48 20 l59 0 0 -32 c0 -65 91 -94 132 -42 12 15 21 33 21 40 0 22 16 16
48 -16 33 -33 62 -39 62 -14 0 31 -23 56 -73 81 -49 23 -43 24 29 7 48 -12 22
20 -32 38 -57 20 -128 21 -239 3z"/>
<path d="M3080 2394 c-80 -27 -122 -62 -57 -49 74 15 80 15 40 -2 -70 -30
-107 -79 -78 -103 9 -7 22 -1 48 25 40 39 57 44 57 17 0 -31 37 -62 75 -62 44
0 75 29 75 70 0 30 1 30 55 30 54 0 55 -1 49 -25 -9 -35 20 -44 51 -15 34 32
38 58 9 76 -39 26 -275 53 -324 38z"/>
<path d="M2453 2043 c-8 -3 -13 -23 -13 -52 0 -41 -3 -49 -30 -64 -32 -19 -47
-41 -61 -89 -12 -42 -1 -84 31 -118 22 -24 36 -30 70 -30 37 0 41 2 38 22 -2
15 -13 24 -36 30 -69 18 -68 108 1 142 l38 18 -3 71 c-3 68 -9 81 -35 70z"/>
<path d="M2129 1544 c-24 -29 1 -49 68 -52 l59 -3 1 -97 c0 -197 82 -306 228
-306 77 0 129 26 173 88 53 73 73 205 46 298 -4 15 4 17 57 20 65 3 88 19 76
52 -6 14 -41 16 -350 16 -302 0 -346 -2 -358 -16z m323 -145 c4 -62 10 -96 21
-106 13 -14 16 -13 27 6 6 12 14 60 17 106 l6 85 49 0 c43 0 50 -3 58 -26 15
-39 12 -145 -6 -197 -9 -27 -30 -59 -50 -77 -30 -26 -43 -30 -91 -30 -52 0
-59 3 -92 38 -44 46 -61 98 -61 183 0 104 4 109 65 109 l52 0 5 -91z"/>
</g>
</svg>
